<svg id="Layer_1" data-name="Layer 1" xmlns="http://www.w3.org/2000/svg" viewBox="0 0 572 301.51"><defs><style>.cls-1,.cls-3,.cls-4,.cls-5{fill:#fcfcfc;}.cls-2,.cls-3,.cls-4,.cls-5{isolation:isolate;}.cls-3{font-size:59.85px;font-family:Lato-Regular, Lato;}.cls-4{font-size:90.54px;font-family:Lato-Bold, Lato;font-weight:700;}.cls-5{font-size:33.4px;font-family:FontAwesome, FontAwesome;letter-spacing:0.6em;}</style></defs><title>DBF_logo_white</title><path class="cls-1" d="M196.91,290.17c-86.13,0-156-66.37-156-148.23C41,93.13,65.78,49.81,104.1,22.81c-35.91,26.53-59,68-59,114.52,0,80.08,68.31,145,152.58,145Z" transform="translate(-1.38 -2.07)"/><path class="cls-1" d="M377.82,290.17c86.14,0,156-66.37,156-148.23,0-48.81-24.84-92.11-63.16-119.12,35.91,26.53,59,67.95,59,114.52,0,80.08-68.31,145-152.57,145Z" transform="translate(-1.38 -2.07)"/><path class="cls-1" d="M85.79,239.67s-22.63-34.9,4.2-63.8C90,175.87,116,208.25,85.79,239.67Z" transform="translate(-1.38 -2.07)"/><path class="cls-1" d="M80.83,244s-42.45,7.23-60.91-27.08C19.92,216.91,61.15,205.74,80.83,244Z" transform="translate(-1.38 -2.07)"/><path class="cls-1" d="M54.38,208.51s-36.93,6.3-53-23.56C1.38,185,37.26,175.23,54.38,208.51Z" transform="translate(-1.38 -2.07)"/><path class="cls-1" d="M43.38,176.62s-36.2-9.43-37.19-43C6.22,133.67,43,139.57,43.38,176.62Z" transform="translate(-1.38 -2.07)"/><path class="cls-1" d="M43.67,134.18S12.38,122.42,15,92.48C15,92.48,47.12,101.15,43.67,134.18Z" transform="translate(-1.38 -2.07)"/><path class="cls-1" d="M45.52,99.3S24.38,74.45,42.09,49.58C42.09,49.58,65.61,72.15,45.52,99.3Z" transform="translate(-1.38 -2.07)"/><path class="cls-1" d="M68.2,63.36S50.84,43,65.38,22.55C65.38,22.55,84.69,41.07,68.2,63.36Z" transform="translate(-1.38 -2.07)"/><path class="cls-1" d="M82.38,29.52S82.91,8.2,103.23,2.81C103.23,2.81,105,24,82.38,29.52Z" transform="translate(-1.38 -2.07)"/><path class="cls-1" d="M56.82,201.93s-10.44-35.55,20.34-54.2C77.16,147.73,91.22,181.91,56.82,201.93Z" transform="translate(-1.38 -2.07)"/><path class="cls-1" d="M46.73,156.75s-.45-32.88,30.54-42.25C77.27,114.5,81.15,147,46.73,156.75Z" transform="translate(-1.38 -2.07)"/><path class="cls-1" d="M43.68,115.27S52.84,86.1,82.94,86C82.94,86,76.94,115.66,43.68,115.27Z" transform="translate(-1.38 -2.07)"/><path class="cls-1" d="M59.18,79.27S72.18,52.6,101,56.43C101,56.43,90.92,84.05,59.18,79.27Z" transform="translate(-1.38 -2.07)"/><path class="cls-1" d="M80.47,41.59S96.72,20.65,121,28.81C121,28.81,107.11,51.06,80.47,41.59Z" transform="translate(-1.38 -2.07)"/><path class="cls-1" d="M106.63,16.74S122.88-4.19,147.14,4C147.14,4,133.26,26.2,106.63,16.74Z" transform="translate(-1.38 -2.07)"/><path class="cls-1" d="M489,239.67s22.64-34.9-4.2-63.8C484.77,175.87,458.72,208.25,489,239.67Z" transform="translate(-1.38 -2.07)"/><path class="cls-1" d="M493.93,244s42.46,7.23,60.92-27.08C554.85,216.91,513.61,205.74,493.93,244Z" transform="translate(-1.38 -2.07)"/><path class="cls-1" d="M520.38,208.51s36.94,6.29,53-23.56C573.38,185,537.5,175.23,520.38,208.51Z" transform="translate(-1.38 -2.07)"/><path class="cls-1" d="M531.38,176.62s36.2-9.43,37.18-43C568.53,133.67,531.74,139.57,531.38,176.62Z" transform="translate(-1.38 -2.07)"/><path class="cls-1" d="M531.1,134.18s31.27-11.76,28.69-41.7C559.79,92.48,527.63,101.15,531.1,134.18Z" transform="translate(-1.38 -2.07)"/><path class="cls-1" d="M529.24,99.3s21.14-24.85,3.43-49.72C532.67,49.58,509.15,72.15,529.24,99.3Z" transform="translate(-1.38 -2.07)"/><path class="cls-1" d="M506.56,63.36S523.92,43,509.38,22.55C509.38,22.55,490.07,41.07,506.56,63.36Z" transform="translate(-1.38 -2.07)"/><path class="cls-1" d="M492.38,29.52S491.85,8.2,471.53,2.81C471.53,2.81,469.82,24,492.38,29.52Z" transform="translate(-1.38 -2.07)"/><path class="cls-1" d="M518,201.93s10.44-35.55-20.35-54.2C497.6,147.73,483.54,181.91,518,201.93Z" transform="translate(-1.38 -2.07)"/><path class="cls-1" d="M528,156.75s.44-32.88-30.55-42.25C497.49,114.5,493.61,147,528,156.75Z" transform="translate(-1.38 -2.07)"/><path class="cls-1" d="M531.07,115.27S521.93,86.1,491.82,86C491.82,86,497.82,115.66,531.07,115.27Z" transform="translate(-1.38 -2.07)"/><path class="cls-1" d="M515.58,79.27s-13-26.67-41.82-22.84C473.76,56.43,483.84,84.05,515.58,79.27Z" transform="translate(-1.38 -2.07)"/><path class="cls-1" d="M494.29,41.59S478,20.65,453.78,28.81C453.78,28.81,467.66,51.06,494.29,41.59Z" transform="translate(-1.38 -2.07)"/><path class="cls-1" d="M468.14,16.74S451.89-4.19,427.63,4C427.63,4,441.51,26.2,468.14,16.74Z" transform="translate(-1.38 -2.07)"/><g class="cls-2"><text class="cls-3" transform="translate(253.84 72.52)">DE</text><text class="cls-4" transform="translate(116.72 163.12)">BEDSTE</text></g><text class="cls-3" transform="translate(223.36 228.75)">FILM</text><text class="cls-5" transform="translate(223.01 296.73)"></text></svg>